<svg width="17" height="16" viewBox="0 0 17 16" fill="none" xmlns="http://www.w3.org/2000/svg">
<path d="M9.15375 12.6509C9.24115 12.738 9.31049 12.8415 9.35781 12.9554C9.40513 13.0694 9.42949 13.1916 9.42949 13.3149C9.42949 13.4383 9.40513 13.5605 9.35781 13.6745C9.31049 13.7884 9.24115 13.8919 9.15375 13.979L8.68968 14.4431C7.81033 15.3224 6.61766 15.8164 5.37406 15.8164C4.13046 15.8164 2.93779 15.3224 2.05844 14.4431C1.17908 13.5637 0.685059 12.371 0.685059 11.1274C0.685059 9.88384 1.17908 8.69117 2.05844 7.81181L3.94281 5.92822C4.78772 5.08122 5.92451 4.58933 7.12033 4.55331C8.31615 4.51729 9.48048 4.93986 10.3748 5.73447C10.4672 5.81655 10.5424 5.91601 10.5963 6.02717C10.6502 6.13833 10.6817 6.25902 10.689 6.38235C10.6962 6.50568 10.6791 6.62923 10.6386 6.74595C10.5981 6.86266 10.535 6.97026 10.453 7.06259C10.3709 7.15493 10.2714 7.2302 10.1603 7.28409C10.0491 7.33799 9.92841 7.36947 9.80508 7.37672C9.68176 7.38398 9.55821 7.36687 9.44149 7.32638C9.32477 7.28588 9.21718 7.2228 9.12484 7.14072C8.58853 6.66441 7.89049 6.41102 7.17352 6.43237C6.45656 6.45371 5.77483 6.74819 5.26781 7.25556L3.385 9.13681C2.85747 9.66435 2.5611 10.3798 2.5611 11.1259C2.5611 11.8719 2.85747 12.5874 3.385 13.1149C3.91253 13.6425 4.62802 13.9388 5.37406 13.9388C6.1201 13.9388 6.83559 13.6425 7.36312 13.1149L7.82719 12.6509C7.91425 12.5637 8.01765 12.4946 8.13146 12.4474C8.24527 12.4002 8.36726 12.3759 8.49047 12.3759C8.61367 12.3759 8.73566 12.4002 8.84947 12.4474C8.96328 12.4946 9.06668 12.5637 9.15375 12.6509ZM14.9412 1.55713C14.0612 0.67912 12.8688 0.186035 11.6256 0.186035C10.3825 0.186035 9.19007 0.67912 8.31 1.55713L7.84594 2.02119C7.66982 2.19731 7.57087 2.43618 7.57087 2.68525C7.57087 2.93432 7.66982 3.17319 7.84594 3.34931C8.02206 3.52543 8.26093 3.62438 8.51 3.62438C8.75907 3.62438 8.99794 3.52543 9.17406 3.34931L9.63812 2.88525C10.1657 2.35772 10.8811 2.06135 11.6272 2.06135C12.3732 2.06135 13.0887 2.35772 13.6162 2.88525C14.1438 3.41278 14.4401 4.12827 14.4401 4.87431C14.4401 5.62036 14.1438 6.33584 13.6162 6.86338L11.7327 8.74775C11.2252 9.25491 10.5431 9.54896 9.82593 9.56973C9.10878 9.5905 8.41081 9.33641 7.87484 8.85947C7.78251 8.77739 7.67491 8.71431 7.55819 8.67381C7.44148 8.63332 7.31793 8.61621 7.1946 8.62347C7.07127 8.63072 6.95058 8.6622 6.83942 8.7161C6.72825 8.76999 6.62879 8.84526 6.54672 8.9376C6.46464 9.02993 6.40156 9.13753 6.36106 9.25424C6.32057 9.37096 6.30346 9.49451 6.31072 9.61784C6.31797 9.74117 6.34944 9.86186 6.40334 9.97302C6.45724 10.0842 6.53251 10.1836 6.62484 10.2657C7.51858 11.0601 8.68213 11.483 9.87739 11.4477C11.0726 11.4124 12.2092 10.9217 13.0545 10.0759L14.9389 8.19228C15.8179 7.31242 16.3119 6.1197 16.3123 4.87597C16.3128 3.63224 15.8197 2.43917 14.9412 1.55869V1.55713Z" fill="#633CFF"/>
</svg>
